<svg fill="none" height="209" viewBox="0 0 1232 209" width="1232" xmlns="http://www.w3.org/2000/svg" xmlns:xlink="http://www.w3.org/1999/xlink"><linearGradient id="a" gradientUnits="userSpaceOnUse" x1="436.959" x2="436.959" y1="-6" y2="252.512"><stop offset="0" stop-color="#fff"/><stop offset="1" stop-color="#fff" stop-opacity="0"/></linearGradient><linearGradient id="b" gradientUnits="userSpaceOnUse" x1="735.307" x2="1484.03" y1="-120.94" y2="-166.728"><stop offset="0"/><stop offset=".2" stop-color="#ff507a"/><stop offset=".409834" stop-color="#8250df"/><stop offset=".606822" stop-color="#096bde"/><stop offset=".885947" stop-color="#0dff50"/><stop offset="1" stop-color="#fff"/></linearGradient><clipPath id="c"><path d="m0 0h1232v209h-1232z"/></clipPath><g clip-path="url(#c)"><path d="m59.2687 204.953c-13.0162 0-23.7726-2.441-32.2693-7.322-8.4966-5.062-14.8239-12.112-18.98189-21.151-4.15795-9.039-6.23692-19.524-6.23692-31.456v-140.19503h48.26831v141.00903c0 3.796.3616 6.779 1.0847 8.948.9039 2.17 2.079 3.706 3.5252 4.61 1.4463.723 3.1637 1.085 5.1523 1.085 2.7117 0 4.7002-.633 5.9657-1.898 1.4463-1.266 2.4405-2.983 2.9829-5.153.5423-2.169.8135-4.7.8135-7.592v-141.00903h47.7258v140.19503c0 13.559-2.44 24.767-7.321 33.625s-11.6607 15.457-20.3382 19.796c-8.6775 4.338-18.8011 6.508-30.3711 6.508zm70.3603-2.441v-197.68303h51.251l21.151 98.43503h1.899l-2.441-56.6748v-41.76023h44.472v197.68303h-50.709l-21.965-97.079h-1.627l2.441 54.505v42.574zm128.901 0v-197.68303h50.709v197.68303zm84.171 0-28.744-197.68303h45.286l10.846 111.72203 3.526 40.947h1.898l2.983-40.676 11.389-111.99303h45.285l-29.015 197.68303zm97.365 0v-197.68303h90.029v42.57373h-48.811l6.779-6.7792v47.9971l-6.779-6.7792h45.014v39.5906h-45.014l6.779-6.779v52.065l-6.779-6.78h48.811v42.574zm99.772 0v-197.68303h54.505c9.401 0 17.897.99429 25.49 2.98287 7.774 1.80781 14.372 4.88106 19.795 9.21976 5.605 4.3388 9.853 10.2141 12.745 17.6261 3.074 7.412 4.61 16.6318 4.61 27.6594 0 12.8354-2.079 23.2303-6.237 31.1846-4.157 7.7733-9.671 12.9253-16.541 15.4563v1.899c7.593 1.265 12.745 5.785 15.457 13.558 2.892 7.774 4.339 16.542 4.339 26.304v31.727c0 4.158.18 7.864.542 11.118.361 3.073.813 6.056 1.356 8.948h-49.082c-.723-2.711-1.266-5.785-1.627-9.22-.362-3.434-.543-6.056-.543-7.864v-29.286c0-3.254-.18-6.418-.542-9.491-.181-3.254-.994-5.966-2.44-8.135-1.266-2.169-3.435-3.254-6.508-3.254h-6.78v67.25zm48.539-105.2139h3.525c6.689 0 11.028-2.1694 13.017-6.5081 2.169-4.3387 3.254-10.4853 3.254-18.4396 0-6.1465-.633-11.0276-1.898-14.6432-1.085-3.6156-2.803-6.2369-5.153-7.8639-2.35-1.6271-5.514-2.4406-9.491-2.4406h-3.254zm128.467 107.9259c-13.558 0-24.495-2.712-32.811-8.135-8.316-5.424-14.372-13.016-18.169-22.779-3.796-9.942-5.694-21.422-5.694-34.438h42.031c0 7.231.452 13.016 1.356 17.355 1.085 4.158 2.621 7.141 4.61 8.948 1.988 1.627 4.339 2.441 7.05 2.441 3.977 0 6.689-1.446 8.135-4.339 1.447-3.073 2.17-7.141 2.17-12.202 0-3.797-.543-7.141-1.627-10.034-.904-2.892-2.441-5.514-4.61-7.864-1.989-2.35-4.61-4.7-7.864-7.05s-7.231-4.972-11.932-7.864c-4.7-2.893-9.31-6.147-13.829-9.762-4.52-3.616-8.678-7.774-12.474-12.4741-3.616-4.8811-6.508-10.5756-8.678-17.0837-2.169-6.5081-3.254-14.1009-3.254-22.7783 0-12.6547 2.35-22.9591 7.051-30.9135 4.7-8.1351 11.208-14.1008 19.524-17.89721 8.316-3.97717 17.807-5.96576 28.473-5.96576 11.751 0 21.784 2.07898 30.1 6.23692 8.316 3.97715 14.733 10.48525 19.253 19.52425 4.519 9.039 6.779 20.9705 6.779 35.7945h-42.845c.181-6.3273-.09-11.2987-.813-14.9144-.723-3.7963-1.898-6.508-3.525-8.1351-1.627-1.8078-3.797-2.7117-6.509-2.7117-2.35 0-4.248.6328-5.694 1.8982-1.446 1.2655-2.531 3.0733-3.254 5.4234-.543 2.3502-.814 5.1523-.814 8.4063 0 4.8811.723 8.9486 2.17 12.2027 1.446 3.0732 3.886 5.9657 7.321 8.6774s7.955 5.785 13.559 9.2198c5.785 3.4349 11.208 7.2312 16.27 11.3892 5.062 3.9772 9.491 8.4971 13.287 13.5581 3.797 4.881 6.78 10.576 8.949 17.084 2.35 6.327 3.525 13.559 3.525 21.694 0 13.016-2.35 23.772-7.05 32.269-4.52 8.497-11.028 14.824-19.525 18.982-8.496 4.158-18.71 6.237-30.642 6.237zm67.556-2.712v-197.68303h90.028v42.57373h-48.811l6.78-6.7792v47.9971l-6.78-6.7792h45.015v39.5906h-45.015l6.78-6.779v52.065l-6.78-6.78h48.811v42.574z" fill="#fffefe"/><path d="m26.9994 197.631-.5118.859.0068.004.0069.004zm-18.98189-21.151-.9085.418zm-6.23692-171.65103v-1h-1.000004v1zm48.26831 0h1v-1h-1zm1.0847 149.95703-.9487.316.0116.035.014.034zm3.5252 4.61-.53.848.0403.025.0425.022zm11.118-.813-.6585-.753-.0251.022-.0235.023zm3.7964-153.75403v-1h-1v1zm47.7258 0h1v-1h-1zm-7.321 173.82003.875.483zm-20.3382 19.796-.4472-.895zm-30.3711 5.508c-12.8969 0-23.4679-2.419-31.7711-7.189l-.9963 1.734c8.6901 4.992 19.632 7.455 32.7674 7.455zm-31.7575-7.181c-8.3217-4.958-14.5113-11.854-18.5852-20.71l-1.81699.836c4.24199 9.221 10.70699 16.426 19.37859 21.592zm-18.5852-20.71c-4.08686-8.885-6.14541-19.222-6.14541-31.038h-2.000004c0 12.048 2.099394 22.68 6.328424 31.874zm-6.14541-31.038v-140.19503h-2.000004v140.19503zm-1-139.19503h48.26831v-2h-48.26831zm47.26831-1v141.00903h2v-141.00903zm0 141.00903c0 3.842.3639 6.948 1.136 9.264l1.8974-.632c-.6741-2.022-1.0334-4.882-1.0334-8.632zm1.1616 9.333c.9543 2.29 2.2409 4.025 3.9183 5.073l1.06-1.696c-1.215-.759-2.2786-2.098-3.1321-4.146zm4.0011 5.12c1.6134.806 3.4907 1.19 5.5995 1.19v-2c-1.8684 0-3.426-.34-4.7051-.979zm5.5995 1.19c2.8424 0 5.1424-.661 6.6728-2.191l-1.4142-1.415c-1.0005 1.001-2.6777 1.606-5.2586 1.606zm6.6242-2.146c1.6237-1.421 2.7111-3.328 3.2945-5.662l-1.9403-.485c-.5012 2.005-1.4024 3.532-2.6712 4.642zm3.2945-5.662c.567-2.268.8434-4.884.8434-7.835h-2c0 2.833-.266 5.279-.7837 7.35zm.8434-7.835v-141.00903h-2v141.00903zm-1-140.00903h47.7258v-2h-47.7258zm46.7258-1v140.19503h2v-140.19503zm0 140.19503c0 13.445-2.421 24.474-7.197 33.143l1.751.965c4.986-9.048 7.446-20.436 7.446-34.108zm-7.197 33.143c-4.788 8.688-11.4213 15.139-19.9094 19.383l.8944 1.789c8.8668-4.433 15.792-11.179 20.766-20.207zm-19.9094 19.383c-8.5143 4.257-18.4795 6.403-29.9239 6.403v2c11.6956 0 21.9777-2.194 30.8183-6.614zm40.4364 4.962h-1v1h1zm0-197.68303v-1h-1v1zm51.251 0 .978-.21008-.17-.78992h-.808zm21.151 98.43503-.977.21.17.79h.807zm1.899 0v1h1.044l-.045-1.043zm-2.441-56.6748h-1v.0215l.001.0215zm0-41.76023v-1h-1v1zm44.472 0h1v-1h-1zm0 197.68303v1h1v-1zm-50.709 0-.975.221.176.779h.799zm-21.965-97.079.976-.22-.177-.78h-.799zm-1.627 0v-1h-1.045l.046 1.045zm2.441 54.505h1v-.022l-.001-.022zm0 42.574v1h1v-1zm-43.472 0v-197.68303h-2v197.68303zm-1-196.68303h51.251v-2h-51.251zm50.273-.78992 21.152 98.43495 1.955-.42-21.151-98.43511zm22.129 99.22495h1.899v-2h-1.899zm2.898-1.043-2.441-56.6748-1.998.086 2.441 56.6748zm-2.44-56.6318v-41.76023h-2v41.76023zm-1-40.76023h44.472v-2h-44.472zm43.472-1v197.68303h2v-197.68303zm1 196.68303h-50.709v2h50.709zm-49.733.78-21.965-97.079-1.951.441 21.965 97.079zm-22.941-97.859h-1.627v2h1.627zm-2.626 1.045 2.441 54.505 1.998-.089-2.441-54.506zm2.44 54.46v42.574h2v-42.574zm1 41.574h-44.472v2h44.472zm84.429 1h-1v1h1zm0-197.68303v-1h-1v1zm50.709 0h1v-1h-1zm0 197.68303v1h1v-1zm-49.709 0v-197.68303h-2v197.68303zm-1-196.68303h50.709v-2h-50.709zm49.709-1v197.68303h2v-197.68303zm1 196.68303h-50.709v2h50.709zm33.462 1-.989.144.124.856h.865zm-28.744-197.68303v-1h-1.156l.166 1.14389zm45.286 0 .995-.09663-.088-.90337h-.907zm10.846 111.72203.997-.086-.001-.01zm3.526 40.947-.997.086.079.914h.918zm1.898 0v1h.929l.068-.927zm2.983-40.676-.995-.101-.002.014-.001.014zm11.389-111.99303v-1h-.904l-.091.89883zm45.285 0 .99.14522.168-1.14522h-1.158zm-29.015 197.68303v1h.864l.125-.855zm-62.464-.144-28.744-197.68292-1.98.28778 28.745 197.68314zm-29.734-196.53903h45.286v-2h-45.286zm44.29-.90337 10.847 111.7224 1.991-.193-10.847-111.72266zm10.846 111.7114 3.525 40.947 1.993-.172-3.525-40.947zm4.522 41.861h1.898v-2h-1.898zm2.895-.927 2.983-40.676-1.995-.146-2.983 40.676zm2.98-40.647 11.39-111.99386-1.99-.20234-11.389 111.9932zm10.395-111.09503h45.285v-2h-45.285zm44.296-1.14522-29.015 197.68325 1.978.29 29.016-197.68281zm-28.026 196.82825h-63.454v2h63.454zm33.911 1h-1v1h1zm0-197.68303v-1h-1v1zm90.029 0h1v-1h-1zm0 42.57373v1h1v-1zm-48.811 0-.707-.7071-1.707 1.7071h2.414zm6.779-6.7792h1v-2.4142l-1.707 1.7071zm0 47.9971-.707.7071 1.707 1.7071v-2.4142zm-6.779-6.7792v-1h-2.414l1.707 1.7071zm45.014 0h1v-1h-1zm0 39.5906v1h1v-1zm-45.014 0-.707-.707-1.707 1.707h2.414zm6.779-6.779h1v-2.414l-1.707 1.707zm0 52.065-.707.707 1.707 1.707v-2.414zm-6.779-6.78v-1h-2.414l1.707 1.708zm48.811 0h1v-1h-1zm0 42.574v1h1v-1zm-89.029 0v-197.68303h-2v197.68303zm-1-196.68303h90.029v-2h-90.029zm89.029-1v42.57373h2v-42.57373zm1 41.57373h-48.811v2h48.811zm-48.104 1.7071 6.779-6.7792-1.414-1.4142-6.779 6.7792zm5.072-7.4863v47.9971h2v-47.9971zm1.707 47.29-6.779-6.7792-1.414 1.4142 6.779 6.7792zm-7.486-5.0721h45.014v-2h-45.014zm44.014-1v39.5906h2v-39.5906zm1 38.5906h-45.014v2h45.014zm-44.307 1.707 6.779-6.779-1.414-1.414-6.779 6.779zm5.072-7.486v52.065h2v-52.065zm1.707 51.358-6.779-6.78-1.414 1.415 6.779 6.779zm-7.486-5.073h48.811v-2h-48.811zm47.811-1v42.574h2v-42.574zm1 41.574h-90.029v2h90.029zm9.743 1h-1v1h1zm0-197.68303v-1h-1v1zm79.995 2.98287-.253.96737.013.0035.014.00314zm19.795 9.21976-.624.7809.006.005.006.0049zm12.745 17.6261-.931.3636.004.0097.004.0097zm-1.627 58.844.882.4717.005-.0084zm-16.541 15.4563-.346-.938-.654.241v.697zm0 1.899h-1v.847l.836.139zm15.457 13.558-.944.329.003.01.004.01zm4.881 69.149-.994.11.001.006zm1.356 8.948v1h1.205l-.222-1.184zm-49.082 0-.966.258.198.742h.768zm-2.712-55.861-.998.056.001.03.004.031zm-2.44-8.135-.864.504.015.026.017.025zm-13.288-3.254v-1h-1v1zm0 67.25v1h1v-1zm0-105.2139h-1v1h1zm16.542-6.5081-.895-.4472-.007.0151-.007.0154zm1.356-33.0828-.958.2873.006.0217.008.0213zm-5.153-7.8639-.569.8222zm-12.745-2.4406v-1h-1v1zm-47.539 155.1093v-197.68303h-2v197.68303zm-1-196.68303h54.505v-2h-54.505zm54.505 0c9.331 0 17.741.98709 25.237 2.95024l.506-1.93474c-7.689-2.01401-16.273-3.0155-25.743-3.0155zm25.264 2.95688c7.649 1.77905 14.106 4.79425 19.397 9.02665l1.249-1.5617c-5.556-4.445-12.296-7.57637-20.193-9.41297zm19.409 9.03655c5.444 4.2147 9.591 9.9344 12.426 17.1989l1.863-.7271c-2.95-7.5595-7.3-13.5906-13.064-18.0533zm12.434 17.2183c3.008 7.2543 4.533 16.3342 4.533 27.2764h2c0-11.113-1.547-20.4727-4.686-28.0424zm4.533 27.2764c0 12.739-2.065 22.9582-6.123 30.7213l1.773.9266c4.258-8.1455 6.35-18.7161 6.35-31.6479zm-6.118 30.7129c-4.068 7.604-9.411 12.56-16.006 14.99l.692 1.877c7.144-2.632 12.829-7.98 17.077-15.9236zm-16.66 15.928v1.899h2v-1.899zm.836 2.885c3.636.606 6.644 1.982 9.063 4.104 2.423 2.125 4.303 5.041 5.614 8.797l1.888-.658c-1.401-4.017-3.453-7.248-6.183-9.642-2.733-2.398-6.097-3.914-10.054-4.574zm14.684 12.921c2.844 7.644 4.276 16.291 4.276 25.955h2c0-9.861-1.461-18.75-4.402-26.653zm4.276 25.955v31.727h2v-31.727zm0 31.727c0 4.185.181 7.929.548 11.228l1.988-.221c-.357-3.209-.536-6.877-.536-11.007zm.549 11.234c.364 3.095.819 6.101 1.366 9.016l1.966-.368c-.538-2.869-.987-5.829-1.346-8.881zm2.349 7.832h-49.082v2h49.082zm-48.116.743c-.707-2.652-1.241-5.673-1.599-9.067l-1.989.209c.366 3.475.916 6.601 1.656 9.373zm-1.599-9.067c-.36-3.426-.537-6.005-.537-7.76h-2c0 1.862.186 4.525.548 7.969zm-.537-7.76v-29.286h-2v29.286zm0-29.286c0-3.291-.182-6.494-.549-9.608l-1.986.234c.357 3.032.535 6.157.535 9.374zm-.543-9.546c-.189-3.389-1.04-6.284-2.607-8.635l-1.664 1.11c1.325 1.988 2.1 4.516 2.274 7.636zm-2.576-8.584c-1.487-2.549-4.036-3.75-7.371-3.75v2c2.81 0 4.6.968 5.644 2.758zm-7.371-3.75h-6.78v2h6.78zm-7.78 1v67.25h2v-67.25zm1 66.25h-48.539v2h48.539zm0-103.2139h3.525v-2h-3.525zm3.525 0c6.897 0 11.71-2.2565 13.926-7.0915l-1.818-.8333c-1.762 3.8425-5.627 5.9248-12.108 5.9248zm13.911-7.0609c2.27-4.5391 3.36-10.8649 3.36-18.8868h-2c0 7.8868-1.08 13.854-3.149 17.9924zm3.36-18.8868c0-6.1995-.636-11.2073-1.955-14.9736l-1.887.6607c1.212 3.465 1.842 8.2194 1.842 14.3129zm-1.941-14.9305c-1.129-3.7629-2.952-6.6066-5.541-8.3988l-1.138 1.6444c2.112 1.4617 3.723 3.8607 4.764 7.329zm-5.541-8.3988c-2.571-1.7801-5.956-2.6184-10.06-2.6184v2c3.851 0 6.793.7888 8.922 2.2628zm-10.06-2.6184h-3.254v2h3.254zm-4.254 1v49.8954h2v-49.8954zm96.656 149.6863.546-.838zm-18.169-22.779-.934.357.002.006zm-5.694-34.438v-1h-1v1zm42.031 0h1v-1h-1zm1.356 17.355-.979.204.005.024.006.024zm4.61 8.948-.673.74.019.018.021.016zm15.185-1.898.895.447.005-.01.005-.011zm.543-22.236-.955.298.009.027.009.026zm-4.61-7.864-.764.646.014.017.015.016zm-7.864-7.05.585-.811zm-25.761-17.626.624-.781zm-12.474-12.4741-.804.5952.013.0169.013.0162zm-4.881-70.7755.861.5088.005-.0085zm19.524-17.89721.415.90969.008-.00371.008-.00385zm58.573.27116-.447.89443.007.00392.008.00379zm19.253 19.52425-.895.4472zm6.779 35.7945v1h1v-1zm-42.845 0-.999-.0285-.03 1.0285h1.029zm-.813-14.9144-.983.1872.002.009zm-3.525-8.1351-.744.669.018.0196.018.0185zm-12.203-.8135-.659-.7526zm-3.254 5.4234-.956-.2941-.011.0343-.008.035zm1.356 20.609-.914.4061.004.0099.005.0098zm7.321 8.6774-.619.7849zm13.559 9.2198-.523.8527.012.0072zm16.27 11.3892-.635.7727.009.0069.008.0067zm13.287 13.5581-.8.6.006.007.005.007zm8.949 17.084-.949.316.006.016.006.016zm-3.525 53.963-.875-.484-.004.007-.004.007zm-19.525 18.982-.439-.898zm-30.642 5.237c-13.433 0-24.161-2.688-32.265-7.973l-1.093 1.675c8.528 5.562 19.675 8.298 33.358 8.298zm-32.265-7.973c-8.131-5.303-14.058-12.724-17.783-22.303l-1.864.725c3.868 9.945 10.053 17.709 18.554 23.253zm-17.781-22.297c-3.744-9.807-5.628-21.162-5.628-34.082h-2c0 13.112 1.912 24.716 5.76 34.795zm-6.628-33.082h42.031v-2h-42.031zm41.031-1c0 7.262.453 13.124 1.377 17.559l1.958-.408c-.884-4.243-1.335-9.951-1.335-17.151zm1.388 17.607c1.107 4.243 2.711 7.441 4.905 9.436l1.345-1.48c-1.782-1.62-3.252-4.388-4.314-8.461zm4.945 9.47c2.177 1.782 4.754 2.667 7.683 2.667v-2c-2.494 0-4.617-.742-6.417-2.215zm7.683 2.667c4.251 0 7.372-1.576 9.03-4.892l-1.789-.894c-1.235 2.469-3.538 3.786-7.241 3.786zm9.04-4.913c1.532-3.255 2.265-7.485 2.265-12.628h-2c0 4.98-.714 8.885-2.074 11.776zm2.265-12.628c0-3.89-.556-7.358-1.691-10.385l-1.873.702c1.035 2.758 1.564 5.98 1.564 9.683zm-1.673-10.332c-.95-3.042-2.565-5.791-4.829-8.244l-1.47 1.357c2.075 2.247 3.533 4.74 4.39 7.483zm-4.801-8.212c-2.054-2.427-4.741-4.831-8.042-7.215l-1.171 1.622c3.207 2.316 5.763 4.612 7.686 6.885zm-8.042-7.215c-3.279-2.369-7.278-5.004-11.993-7.905l-1.048 1.704c4.687 2.884 8.642 5.491 11.87 7.823zm-11.993-7.905c-4.663-2.87-9.24-6.1-13.729-9.691l-1.249 1.562c4.55 3.64 9.193 6.918 13.93 9.833zm-13.729-9.691c-4.46-3.569-8.567-7.675-12.32-12.3214l-1.556 1.2566c3.84 4.7538 8.049 8.9638 12.627 12.6268zm-12.295-12.2883c-3.545-4.7861-6.392-10.384-8.532-16.8048l-1.897.6325c2.198 6.5954 5.136 12.3867 8.822 17.3627zm-8.532-16.8048c-2.128-6.3832-3.203-13.8649-3.203-22.462h-2c0 8.7578 1.095 16.4615 3.306 23.0945zm-3.203-22.462c0-12.5392 2.33-22.6512 6.912-30.4047l-1.722-1.0175c-4.819 8.1552-7.19 18.6521-7.19 31.4222zm6.917-30.4132c4.599-7.9605 10.952-13.7803 19.073-17.48782l-.83-1.81938c-8.511 3.8852-15.174 9.9969-19.975 18.3067zm19.089-17.49538c8.162-3.90335 17.502-5.86789 28.042-5.86789v-2c-10.792 0-20.434 2.01264-28.904 6.06362zm28.042-5.86789c11.635 0 21.507 2.0587 29.653 6.13135l.894-1.78885c-8.486-4.24325-18.681-6.3425-30.547-6.3425zm29.668 6.13906c8.096 3.87181 14.36 10.20891 18.79 19.06931l1.789-.8944c-4.608-9.2176-11.18-15.8967-19.716-19.97918zm18.79 19.06931c4.426 8.8507 6.674 20.6116 6.674 35.3473h2c0-14.9123-2.271-27.0143-6.885-36.2417zm7.674 34.3473h-42.845v2h42.845zm-41.845 1.0286c.181-6.3573-.088-11.4153-.833-15.1391l-1.961.3923c.702 3.5075.975 8.3923.795 14.6897zm-.831-15.1301c-.738-3.8732-1.964-6.8192-3.8-8.6551l-1.415 1.4142c1.419 1.4182 2.542 3.8956 3.25 7.6152zm-3.764-8.6169c-1.84-2.0441-4.293-3.0428-7.252-3.0428v2c2.465 0 4.351.8092 5.765 2.3807zm-7.252-3.0428c-2.536 0-4.686.6871-6.353 2.1456l1.317 1.5052c1.226-1.0724 2.872-1.6508 5.036-1.6508zm-6.353 2.1456c-1.62 1.4176-2.788 3.4033-3.551 5.8819l1.912.5882c.683-2.2216 1.684-3.8515 2.956-4.9649zm-3.57 5.9512c-.564 2.4443-.839 5.3258-.839 8.6311h2c0-3.2028.268-5.9255.788-8.1814zm-.839 8.6311c0 4.9723.736 9.1888 2.256 12.6088l1.827-.8123c-1.372-3.0881-2.083-7.0066-2.083-11.7965zm2.265 12.6285c1.528 3.2479 4.084 6.2556 7.607 9.0365l1.239-1.5697c-3.347-2.6425-5.672-5.4198-7.037-8.3184zm7.607 9.0365c3.477 2.7451 8.032 5.8412 13.655 9.2875l1.045-1.7052c-5.585-3.4233-10.068-6.4737-13.461-9.152zm13.667 9.2948c5.743 3.4097 11.125 7.1771 16.146 11.302l1.27-1.5454c-5.102-4.191-10.567-8.0163-16.395-11.4763zm16.163 11.3156c4.995 3.9238 9.362 8.3818 13.105 13.3718l1.6-1.2c-3.849-5.132-8.34-9.7143-13.469-13.7444zm13.116 13.3858c3.72 4.783 6.652 10.374 8.789 16.786l1.898-.632c-2.202-6.604-5.235-12.402-9.108-17.382zm8.801 16.818c2.301 6.196 3.462 13.306 3.462 21.346h2c0-8.23-1.189-15.583-3.588-22.042zm3.462 21.346c0 12.902-2.33 23.478-6.925 31.785l1.75.968c4.805-8.687 7.175-19.623 7.175-32.753zm-6.933 31.799c-4.423 8.315-10.777 14.49-19.081 18.554l.879 1.796c8.689-4.252 15.351-10.731 19.968-19.41zm-19.081 18.554c-8.329 4.076-18.385 6.135-30.203 6.135v2c12.045 0 22.418-2.099 31.082-6.339zm37.353 4.423h-1v1h1zm0-197.68303v-1h-1v1zm90.028 0h1v-1h-1zm0 42.57373v1h1v-1zm-48.811 0-.707-.7071-1.707 1.7071h2.414zm6.78-6.7792h1v-2.4142l-1.707 1.7071zm0 47.9971-.707.7071 1.707 1.7071v-2.4142zm-6.78-6.7792v-1h-2.414l1.707 1.7071zm45.015 0h1v-1h-1zm0 39.5906v1h1v-1zm-45.015 0-.707-.707-1.707 1.707h2.414zm6.78-6.779h1v-2.414l-1.707 1.707zm0 52.065-.707.707 1.707 1.707v-2.414zm-6.78-6.78v-1h-2.414l1.707 1.708zm48.811 0h1v-1h-1zm0 42.574v1h1v-1zm-89.028 0v-197.68303h-2v197.68303zm-1-196.68303h90.028v-2h-90.028zm89.028-1v42.57373h2v-42.57373zm1 41.57373h-48.811v2h48.811zm-48.103 1.7071 6.779-6.7792-1.414-1.4142-6.78 6.7792zm5.072-7.4863v47.9971h2v-47.9971zm1.707 47.29-6.779-6.7792-1.415 1.4142 6.78 6.7792zm-7.487-5.0721h45.015v-2h-45.015zm44.015-1v39.5906h2v-39.5906zm1 38.5906h-45.015v2h45.015zm-44.307 1.707 6.779-6.779-1.414-1.414-6.78 6.779zm5.072-7.486v52.065h2v-52.065zm1.707 51.358-6.779-6.78-1.415 1.415 6.78 6.779zm-7.487-5.073h48.811v-2h-48.811zm47.811-1v42.574h2v-42.574zm1 41.574h-90.028v2h90.028z" fill="url(#a)"/><path d="m890.233 202.512v-6.508c0-10.485 2.17-19.615 6.508-27.388 4.339-7.774 10.124-14.643 17.355-20.609 7.412-5.966 15.457-11.389 24.135-16.27 8.677-5.062 17.354-9.853 26.032-14.372 8.677-4.701 16.632-9.491 23.863-14.372 7.231-5.0622 13.014-10.6664 17.354-16.8129 4.52-6.1465 6.78-13.197 6.78-21.1513s-1.99-14.5528-5.97-19.7954c-3.79-5.4234-8.944-9.4006-15.452-11.9315-6.508-2.531-13.83-3.7964-21.965-3.7964-9.943 0-18.44 1.627-25.49 4.8811-7.051 3.254-12.474 7.9543-16.27 14.1008-3.797 5.9658-5.785 13.0162-5.966 21.1513h-30.371c.723-14.2816 4.338-26.2131 10.847-35.7945 6.688-9.5813 15.818-16.8126 27.388-21.6936 11.57-5.06187 25.219-7.5928 40.947-7.5928 15.727 0 29.105 2.53093 40.132 7.5928 11.03 4.881 19.43 11.7507 25.22 20.6089 5.78 8.8583 8.68 19.2531 8.68 31.1846 0 9.5814-1.99 18.078-5.97 25.49-3.8 7.2313-8.86 13.7389-15.18 19.5239-6.33 5.785-13.38 11.028-21.16 15.728-7.769 4.52-15.633 8.859-23.587 13.016-7.774 3.978-15.096 8.045-21.965 12.203-6.87 4.158-12.655 8.497-17.355 13.016-4.52 4.52-7.322 9.672-8.406 15.457h115.793v24.134z" fill="url(#b)"/><g fill="#9051d4"><path d="m1145.23 164.892c-17.9 0-32.99-2.531-45.28-7.593-12.12-5.242-21.34-12.564-27.66-21.965-6.33-9.581-9.58-20.699-9.76-33.354h31.18c.18 8.678 2.44 15.909 6.78 21.694s10.3 10.124 17.9 13.016c7.77 2.893 16.81 4.339 27.11 4.339 11.93 0 21.79-1.446 29.56-4.339 7.96-2.892 13.83-7.05 17.63-12.474 3.97-5.423 5.96-11.66 5.96-18.71 0-5.9661-1.08-10.9376-3.25-14.9147-1.99-4.158-5.06-7.5024-9.22-10.0334-4.16-2.7117-9.13-4.7002-14.92-5.9657-5.78-1.2655-12.38-1.8982-19.79-1.8982h-26.85v-21.4225h24.68c10.85 0 19.52-1.3558 26.03-4.0675 6.69-2.7117 11.57-6.4177 14.65-11.118 3.25-4.8811 4.88-10.4853 4.88-16.8126 0-7.0504-2.08-12.83537-6.24-17.35487-3.98-4.70029-9.58-8.13512-16.81-10.30449-7.05-2.16934-15.46-3.25404-25.22-3.25404s-18.35 1.5366-25.76 4.60991c-7.42 2.89248-13.2 7.231204-17.36 13.01617-4.16 5.60422-6.51 12.56422-7.05 20.88012h-30.37c.18-13.3777 3.71-24.6765 10.58-33.89629 7.05-9.21981 16.63-16.17981 28.74-20.88011 12.29-4.8811 26.39-7.3216 42.3-7.3216 11.93 0 22.69 1.0847 32.27 3.254 9.76 1.9886 18.17 5.1523 25.22 9.491 7.05 4.1579 12.38 9.491 16 15.99904 3.8 6.327318 5.69 13.8297 5.69 22.50716 0 7.7735-1.71 14.7336-5.15 20.8801-3.25 6.1465-7.95 11.2084-14.1 15.1856-6.15 3.9771-13.29 6.6888-21.42 8.1351v1.627c9.04.9039 16.9 3.3444 23.59 7.3216 6.69 3.7964 11.84 9.039 15.46 15.7279 3.79 6.5081 5.69 14.2816 5.69 23.3203 0 11.57-3.43 21.604-10.3 30.1-6.87 8.497-16.63 15.095-29.29 19.796-12.65 4.519-28.02 6.779-46.1 6.779z"/><path d="m1176.15 375.072v-47.183h-116.34v-22.779l107.66-125.552h40.4v123.383h30.37l-.27 24.948h-30.1v47.183zm-82.44-72.131h82.44v-94.639z"/></g></g></svg>