<svg width="38" height="38" viewBox="0 0 38 38" fill="none" xmlns="http://www.w3.org/2000/svg">
<path d="M30.4702 1.28269C30.3101 0.845222 29.6913 0.845222 29.5312 1.28269L29.0532 2.5883C28.2944 4.66083 26.6613 6.29394 24.5888 7.05271L23.2832 7.5307C22.8457 7.69086 22.8457 8.30958 23.2832 8.46975L24.5888 8.94774C26.6613 9.70651 28.2944 11.3396 29.0532 13.4121L29.5312 14.7178C29.6913 15.1552 30.3101 15.1552 30.4702 14.7178L30.9482 13.4121C31.707 11.3396 33.3401 9.70651 35.4126 8.94774L36.7182 8.46975C37.1557 8.30958 37.1557 7.69086 36.7182 7.5307L35.4126 7.05271C33.3401 6.29394 31.707 4.66083 30.9482 2.5883L30.4702 1.28269Z" fill="#E3B341"/>
<path d="M15.997 8.72505C15.6567 7.79543 14.3419 7.79542 14.0016 8.72505L12.9858 11.4995C11.3735 15.9036 7.9031 19.3739 3.49899 20.9863L0.724565 22.0021C-0.205063 22.3424 -0.205063 23.6572 0.724564 23.9975L3.49899 25.0133C7.9031 26.6257 11.3735 30.096 12.9858 34.5001L14.0016 37.2746C14.3419 38.2042 15.6567 38.2042 15.997 37.2746L17.0128 34.5001C18.6252 30.096 22.0955 26.6257 26.4996 25.0133L29.2741 23.9975C30.2037 23.6572 30.2037 22.3424 29.2741 22.0021L26.4996 20.9863C22.0955 19.3739 18.6252 15.9036 17.0128 11.4995L15.997 8.72505Z" fill="#E3B341"/>
</svg>
