<svg width="38" height="38" viewBox="0 0 38 38" fill="none" xmlns="http://www.w3.org/2000/svg">
<path fill-rule="evenodd" clip-rule="evenodd" d="M16.7457 7.17077L22.3374 1.57901C22.7049 1.21153 23.3332 1.47179 23.3332 1.99149V13.1749C23.3332 13.6946 22.7049 13.9549 22.3374 13.5874L16.7457 7.99572C16.5179 7.76791 16.5179 7.39857 16.7457 7.17077ZM7.58325 5.83325C6.61676 5.83325 5.83325 6.61676 5.83325 7.58325C5.83325 8.54974 6.61676 9.33325 7.58325 9.33325C8.54974 9.33325 9.33325 8.54974 9.33325 7.58325C9.33325 6.61676 8.54974 5.83325 7.58325 5.83325ZM2.33325 7.58325C2.33325 4.68376 4.68376 2.33325 7.58325 2.33325C10.4827 2.33325 12.8333 4.68376 12.8333 7.58325C12.8333 9.86913 11.3723 11.8138 9.33325 12.5345V24.7986C11.3723 25.5194 12.8333 27.464 12.8333 29.7499C12.8333 32.6493 10.4827 34.9999 7.58325 34.9999C4.68376 34.9999 2.33325 32.6493 2.33325 29.7499C2.33325 27.464 3.79418 25.5194 5.83325 24.7986V12.5345C3.79418 11.8138 2.33325 9.86913 2.33325 7.58325ZM25.6666 5.83325H23.3333V9.33325H25.6666C26.9553 9.33325 27.9999 10.3779 27.9999 11.6666V24.7986C25.9608 25.5194 24.4999 27.464 24.4999 29.7499C24.4999 32.6493 26.8505 34.9999 29.7499 34.9999C32.6493 34.9999 34.9999 32.6493 34.9999 29.7499C34.9999 27.464 33.539 25.5194 31.4999 24.7986V11.6666C31.4999 8.44493 28.8882 5.83325 25.6666 5.83325ZM5.83325 29.7499C5.83325 28.7835 6.61676 27.9999 7.58325 27.9999C8.54974 27.9999 9.33325 28.7835 9.33325 29.7499C9.33325 30.7164 8.54974 31.4999 7.58325 31.4999C6.61676 31.4999 5.83325 30.7164 5.83325 29.7499ZM27.9999 29.7499C27.9999 28.7835 28.7835 27.9999 29.7499 27.9999C30.7164 27.9999 31.4999 28.7835 31.4999 29.7499C31.4999 30.7164 30.7164 31.4999 29.7499 31.4999C28.7835 31.4999 27.9999 30.7164 27.9999 29.7499Z" fill="#E85AAD"/>
</svg>
