<svg width="38" height="38" viewBox="0 0 38 38" fill="none" xmlns="http://www.w3.org/2000/svg">
<path fill-rule="evenodd" clip-rule="evenodd" d="M19.9111 0.31048C19.1016 0.0514556 18.2315 0.0514542 17.4221 0.310478L5.17208 4.23047C3.48086 4.77167 2.33325 6.34382 2.33325 8.11953V16.333C2.33325 19.9871 3.07812 23.7587 5.37405 27.258C7.66798 30.7545 11.4061 33.8207 17.1151 36.2523C18.1045 36.6737 19.2287 36.6737 20.2181 36.2523C25.927 33.8207 29.6652 30.7545 31.9591 27.258C34.2551 23.7587 34.9999 19.9871 34.9999 16.333V8.11953C34.9999 6.34382 33.8524 4.77167 32.1612 4.23047L19.9111 0.31048ZM18.4888 3.64397C18.6044 3.60696 18.7287 3.60696 18.8444 3.64397L31.0944 7.56397C31.3359 7.64127 31.4999 7.86588 31.4999 8.11953V16.333C31.4999 19.5024 30.859 22.5544 29.0327 25.3381C27.2045 28.1248 24.0837 30.8016 18.8466 33.0323C18.7335 33.0804 18.5997 33.0804 18.4866 33.0323C13.2495 30.8016 10.1288 28.1248 8.30045 25.3381C6.4741 22.5544 5.83325 19.5024 5.83325 16.333V8.11953C5.83325 7.86588 5.99719 7.64127 6.23881 7.56397L18.4888 3.64397ZM26.3206 14.6538C27.0041 13.9704 27.0041 12.8624 26.3206 12.179C25.6372 11.4955 24.5293 11.4955 23.8459 12.179L16.9166 19.1082L14.654 16.8456C13.9706 16.1622 12.8626 16.1622 12.1791 16.8456C11.4957 17.529 11.4957 18.6371 12.1791 19.3205L15.6791 22.8205C16.3626 23.5039 17.4706 23.5039 18.154 22.8205L26.3206 14.6538Z" fill="#298FFF"/>
</svg>
